<?xml version="1.0" standalone="no"?><!DOCTYPE svg PUBLIC "-//W3C//DTD SVG 1.1//EN" "http://www.w3.org/Graphics/SVG/1.1/DTD/svg11.dtd"><svg t="1666851749684" class="icon" viewBox="0 0 1024 1024" version="1.1" xmlns="http://www.w3.org/2000/svg" p-id="3231" xmlns:xlink="http://www.w3.org/1999/xlink" width="32" height="32"><path d="M390.827 562.59c-113.17 0-205.242-92.071-205.242-205.242s92.071-205.241 205.242-205.241 205.241 92.071 205.241 205.241-92.07 205.242-205.241 205.242z m0-346.483c-77.881 0-141.242 63.36-141.242 141.241S312.946 498.59 390.827 498.59s141.241-63.361 141.241-141.242-63.36-141.241-141.241-141.241z" fill="" p-id="3232"></path><path d="M668.021 869.327c-17.673 0-32-14.327-32-32 0-150.662-109.993-273.235-245.193-273.235S145.633 686.665 145.633 837.327c0 17.673-14.327 32-32 32s-32-14.327-32-32c0-89.503 31.785-173.795 89.499-237.348 28.333-31.199 61.402-55.729 98.288-72.909 38.437-17.901 79.284-26.979 121.407-26.979s82.97 9.077 121.407 26.979c36.886 17.18 69.955 41.71 98.288 72.909 57.715 63.553 89.499 147.845 89.499 237.348 0 17.673-14.328 32-32 32zM630.633 567.59c-17.673 0-32-14.327-32-32s14.327-32 32-32c77.881 0 141.242-63.361 141.242-141.242s-63.361-141.241-141.242-141.241c-17.673 0-32-14.327-32-32s14.327-32 32-32c113.171 0 205.242 92.071 205.242 205.241S743.804 567.59 630.633 567.59z" fill="" p-id="3233"></path><path d="M907.827 874.327c-17.673 0-32-14.327-32-32 0-150.662-109.994-273.235-245.194-273.235-17.673 0-32-14.327-32-32s14.327-32 32-32c42.123 0 82.971 9.077 121.407 26.979 36.886 17.18 69.955 41.71 98.288 72.909 57.714 63.553 89.499 147.845 89.499 237.348 0 17.672-14.327 31.999-32 31.999z" fill="" p-id="3234"></path></svg>